<svg xmlns="http://www.w3.org/2000/svg" width="180" height="46" viewBox="0 0 180 46">
  <defs>
    <linearGradient id="grd" x1="0" y1="0" x2="1" y2="1">
      <stop offset="0%" stop-color="#0054a6"/>
      <stop offset="100%" stop-color="#6c63ff"/>
    </linearGradient>
  </defs>
  <rect width="42" height="42" rx="10" ry="10" x="0" y="2" fill="url(#grd)"/>
  <g transform="translate(21, 23)" fill="none" stroke="#fff" stroke-width="2.2" stroke-linecap="round" stroke-linejoin="round">
    <path d="M-2,-12 L2,-12 L0,-8 Z" fill="#fff" stroke="none"/>
    <path d="M0,-12 A12,12 0 0,1 10.4,6"/>
    <path d="M12.4,4 L8.4,8 L10.4,4 Z" fill="#fff" stroke="none" transform="rotate(0,10.4,6)"/>
    <path d="M10.4,6 A12,12 0 0,1 -10.4,6"/>
    <path d="M-8.4,8 L-12.4,4 L-8.4,4 Z" fill="#fff" stroke="none"/>
    <path d="M-10.4,6 A12,12 0 0,1 0,-12"/>
  </g>
  <text x="50" y="20" font-family="'Segoe UI',system-ui,sans-serif" font-size="20" font-weight="800" fill="#ffffff" letter-spacing="1">SMS</text>
  <text x="50" y="35" font-family="'Segoe UI',system-ui,sans-serif" font-size="9.5" fill="rgba(255,255,255,0.75)" letter-spacing="0.5">Scrap Management System</text>
</svg>
